# xmcd
#
# Track frame offsets:
#	150
#	16806
#	34453
#	56513
#	69099
#	85390
#	104160
#	117860
#	134855
#	152502
#	168699
#	185876
#	204205
#	216915
#	233221
#	248578
#	265062
#	282068
#	295255
#	313384
#
# Disc length: 4416 seconds
#
# Revision: 2
# Processed by: cddbd v1.5.2PL0 Copyright (c) Steve Scherf et al.
# Submitted via: dBpowerAMP V4.0
#
DISCID=30113e14
DTITLE=Various Artist - Hott Urban Volume 28 Can
DYEAR=2017
DGENRE=Urban
TTITLE0=21 Savage - Bank Account
TTITLE1=Blackbear ft. Gucci Mane - Do Re Mi
TTITLE2=Chris Brown ft. Yo Gotti, A Boogie Wit Da Hoodie And Kodak Black - Pills and Automobiles
TTITLE3=TK Kravitz ft. Sexton - Space
TTITLE4=Skeme ft. London Jae - Red Coupe
TTITLE5=Future - Incredible
TTITLE6=Tyler, The Creator - See You Again
TTITLE7=Juicy J ft. Offset Of Migos - Flood Watch
TTITLE8=Fat Joe ft. Dre - So Excited
TTITLE9=Young Thug ft. Future - Relationship
TTITLE10=French Montana ft. The Weeknd And Max B - A Lie
TTITLE11=The-Dream ft. Fabolous - Summer Body
TTITLE12=Lyrica Anderson - Don't Take It Personal
TTITLE13=A$ap Mob ft. A$ap Rocky, Playboi Carti, Quavo, Lil Uzi Vert And Frank Ocean - RAF
TTITLE14=Mozzy ft. Bobby Luv - Can't Take It (Ima Gangsta)
TTITLE15=Jazmine Sullivan X Bryson Tiller - Insecure
TTITLE16=Daley - Until The Pain Is Gone
TTITLE17=Amine - Spice Girl
TTITLE18=Jhene Aiko - While We're Young
TTITLE19=Sevyn Streeter - Before I Do
EXTD=
EXTT0=
EXTT1=
EXTT2=
EXTT3=
EXTT4=
EXTT5=
EXTT6=
EXTT7=
EXTT8=
EXTT9=
EXTT10=
EXTT11=
EXTT12=
EXTT13=
EXTT14=
EXTT15=
EXTT16=
EXTT17=
EXTT18=
EXTT19=
PLAYORDER=
